<?xml version="1.0" encoding="utf-8"?>
<!-- Generator: Adobe Illustrator 24.3.0, SVG Export Plug-In . SVG Version: 6.00 Build 0)  -->
<svg version="1.1" id="Capa_1" xmlns="http://www.w3.org/2000/svg" xmlns:xlink="http://www.w3.org/1999/xlink" x="0px" y="0px"
	 viewBox="0 0 535.5 536.1" style="enable-background:new 0 0 535.5 536.1;" xml:space="preserve">
<style type="text/css">
	.st0{fill:none;stroke:#FFFFFF;stroke-width:16;stroke-miterlimit:10;}
	.st1{fill:#FFCF2D;}
	.st2{font-family:'MyriadPro-Regular';}
	.st3{font-size:65.8449px;}
</style>
<g>
	<path class="st0" d="M119,282.1H12.9c3.6,62.8,29.8,121.4,74.6,166.2c45.3,45.3,104.5,71.5,168.1,74.7V417.1
		C183.7,410.8,126.1,353.8,119,282.1z"/>
	<path class="st0" d="M285.6,416.7v106.1c62.1-4,120-30.1,164.4-74.5c44.9-44.9,71-103.4,74.6-166.2h-106
		C411.6,352.6,355.9,408.9,285.6,416.7z"/>
	<path class="st0" d="M255.6,117.1v-106c-63.5,3.2-122.8,29.5-168.1,74.7c-44.8,44.9-71,103.5-74.6,166.3H119
		C126.1,180.4,183.7,123.4,255.6,117.1z"/>
	<path class="st0" d="M418.6,252.1h106.1c-3.6-62.8-29.8-121.4-74.6-166.2c-44.5-44.5-102.3-70.6-164.5-74.6v106.1
		C355.8,125.3,411.6,181.6,418.6,252.1z"/>
</g>
<g>
	<path class="st1" d="M300.6,254.2v13.5c0,3-0.5,5.3-1.4,6.8c-1.2,2-3.2,2.9-5.7,2.9s-4.4-0.9-5.7-2.9c-0.9-1.5-1.4-3.8-1.4-6.8
		v-13.5v-11.5h-15.6v11.5v13.9c0,2.3,0.2,4.4,0.7,6.3c2.2,10,10,15.5,21.9,15.5c8,0,14.1-2.5,17.9-7.1c3-3.7,4.7-8.6,4.7-14.8v-25.5
		h-4.7h-10.7V254.2L300.6,254.2z"/>
</g>
<g>
	<polygon class="st1" points="355.1,242.7 347.5,254.2 347.4,254.3 347.3,254.2 339.6,242.7 331.6,242.7 322,242.7 338.2,265.6 
		331.8,274.5 331.6,274.8 321.4,289 331.6,289 339.2,289 347,276.6 355,289 372.9,289 362.6,274.5 355.8,265 363.6,254.2 
		371.9,242.7 	"/>
</g>
<g>
	<path class="st1" d="M194.5,253.7v13.5c0,3-0.5,5.3-1.4,6.8c-1.2,2-3.2,2.9-5.7,2.9s-4.4-0.9-5.7-2.9c-0.9-1.5-1.4-3.8-1.4-6.8
		v-13.5v-11.5h-15.6v11.5v13.9c0,2.3,0.2,4.4,0.7,6.3c2.2,10,10,15.5,21.9,15.5c8,0,14.1-2.5,17.9-7.1c3-3.7,4.7-8.6,4.7-14.8V242
		h-4.7h-10.7V253.7L194.5,253.7z"/>
</g>
<g>
	<text transform="matrix(2.867 0 0 1 206.7953 286.3908)" class="st1 st2 st3">I</text>
</g>
</svg>
