<?xml version="1.0" encoding="utf-8"?>
<!-- Generator: Adobe Illustrator 24.3.0, SVG Export Plug-In . SVG Version: 6.00 Build 0)  -->
<svg version="1.1" id="Layer_1" xmlns="http://www.w3.org/2000/svg" xmlns:xlink="http://www.w3.org/1999/xlink" x="0px" y="0px"
	 viewBox="0 0 512 522.2" style="enable-background:new 0 0 512 522.2;" xml:space="preserve">
<style type="text/css">
	.st0{fill:none;stroke:#FFFFFF;stroke-width:16;stroke-miterlimit:10;}
	.st1{fill:none;stroke:#FFCF2D;stroke-width:16;stroke-miterlimit:10;}
</style>
<path class="st0" d="M37.2,453.6h175.1v29.2h-58.4V512h204.3v-29.2h-58.4v-29.2h175.1v-59.3H37.2V453.6z"/>
<g>
	<g>
		<g>
			<path class="st1" d="M256,131.7c-16.1,0-29.2,13.1-29.2,29.2s13.1,29.2,29.2,29.2s29.2-13.1,29.2-29.2S272.1,131.7,256,131.7z"/>
			<path class="st1" d="M338.5,37.1l-23.6,23.6c-9.2-5.4-19.2-9.6-29.8-12.4V14h-58.4v34.3c-10.6,2.7-20.6,6.9-29.8,12.4l-23.6-23.6
				L132,78.4l23.6,23.6c-5.4,9.2-9.6,19.2-12.4,29.8h-33.3v58.4h33.3c2.7,10.6,6.9,20.6,12.4,29.8L132,243.6l41.3,41.3l23.6-23.6
				c9.2,5.4,19.2,9.6,29.8,12.4V307h58.4v-33.3c10.6-2.7,20.6-6.9,29.8-12.4l23.6,23.6l41.3-41.3L356.2,220
				c5.4-9.2,9.6-19.2,12.4-29.8h33.3v-58.4h-33.3c-2.7-10.6-6.9-20.6-12.4-29.8l23.6-23.6L338.5,37.1z M256,219.2
				c-32.2,0-58.4-26.2-58.4-58.4s26.2-58.4,58.4-58.4s58.4,26.2,58.4,58.4S288.2,219.2,256,219.2z"/>
		</g>
	</g>
</g>
<path class="st0" d="M431.1,219.2h-34.2l24.2,24.2l-82.5,82.5l-24.2-24.2v34.2H197.6v-34.2l-24.2,24.2l-82.5-82.5l24.2-24.2H80.9
	v-87.5H37.2v233.4h437.7V131.7h-43.8L431.1,219.2L431.1,219.2z"/>
</svg>
